<svg width="41" height="46" viewBox="0 0 41 46" fill="none" xmlns="http://www.w3.org/2000/svg">
<path d="M0.537706 19.1814C1.00879 19.2773 3.10919 19.4479 3.54291 19.6249C8.4 21.5986 13.2571 23.5707 18.1142 25.5444C18.275 20.3332 17.9225 15.1073 17.0616 9.96435C16.506 6.64236 15.7571 3.11893 17.0274 0C19.4527 5.38016 20.866 11.2152 21.1714 17.1087C21.3111 19.8117 21.9219 23.3709 24.6103 23.6828C26.0334 23.8485 27.3232 22.9031 28.4424 22.0096C32.4028 18.8533 36.3632 15.6954 40.3236 12.5391C41.7466 14.1099 39.9938 16.4881 38.3564 17.8348C35.4633 20.2146 32.5701 22.596 29.6753 24.9758C27.0795 27.1104 23.509 29.7257 22.9014 33.2361C22.6724 34.5584 22.8104 45.1904 23.2669 45.8532C20.1009 41.269 21.6246 36.0318 19.4755 31.7546C17.6577 28.137 11.6928 25.7637 8.19046 24.4576C5.17062 23.3319 1.66181 21.8943 0 18.9946C2.68358 17.0681 5.7749 16.3972 8.38863 13.6827C11.6391 10.3071 14.0238 6.08681 15.1561 1.53511C14.3422 3.70375 14.4965 6.10955 13.9995 8.3724C12.8266 13.7087 7.61539 17.8624 2.15238 17.8153L0.537706 19.1814Z" fill="black"/>
<path d="M23.7655 8.42272C24.5468 9.13261 25.3444 9.85386 26.3012 10.299C27.081 10.6628 27.9354 10.8285 28.7801 10.991C30.9845 11.4149 33.1889 11.8389 35.3932 12.2645C29.0806 12.3425 25.6726 5.2859 20 4.83105C21.1404 6.10624 22.4805 7.25637 23.7655 8.42272Z" fill="black"/>
</svg>
